<mxfile host="app.diagrams.net" modified="2021-10-10T09:03:59.708Z" agent="5.0 (Windows NT 10.0; Win64; x64) AppleWebKit/537.36 (KHTML, like Gecko) Chrome/94.0.4606.81 Safari/537.36" etag="mEl27fEFqKsKOPdTRpBA" version="15.3.8" type="github">
  <diagram name="Page-1" id="f1b7ffb7-ca1e-a977-7cf5-a751b3c06c05">
    <mxGraphModel dx="2062" dy="1122" grid="1" gridSize="10" guides="1" tooltips="1" connect="1" arrows="1" fold="1" page="1" pageScale="1" pageWidth="826" pageHeight="1169" background="none" math="0" shadow="0">
      <root>
        <mxCell id="0" />
        <mxCell id="1" parent="0" />
        <mxCell id="7JEp76JD-acQuN-Ihj7b-64" value="" style="rounded=0;whiteSpace=wrap;html=1;" vertex="1" parent="1">
          <mxGeometry x="10" y="10" width="810" height="1150" as="geometry" />
        </mxCell>
        <mxCell id="7JEp76JD-acQuN-Ihj7b-65" value="" style="rounded=0;whiteSpace=wrap;html=1;" vertex="1" parent="1">
          <mxGeometry x="20" y="20" width="790" height="360" as="geometry" />
        </mxCell>
        <mxCell id="7JEp76JD-acQuN-Ihj7b-66" value="Icon" style="icon;html=1;image=img/clipart/Gear_128x128.png" vertex="1" parent="1">
          <mxGeometry x="140" y="125" width="140" height="150" as="geometry" />
        </mxCell>
        <mxCell id="7JEp76JD-acQuN-Ihj7b-67" value="Terre de geek" style="text;strokeColor=none;fillColor=none;html=1;fontSize=24;fontStyle=1;verticalAlign=middle;align=center;" vertex="1" parent="1">
          <mxGeometry x="460" y="90" width="100" height="40" as="geometry" />
        </mxCell>
        <mxCell id="7JEp76JD-acQuN-Ihj7b-68" value="La tech en mieuuuuuh" style="text;strokeColor=none;fillColor=none;html=1;fontSize=24;fontStyle=1;verticalAlign=middle;align=center;" vertex="1" parent="1">
          <mxGeometry x="460" y="240" width="100" height="40" as="geometry" />
        </mxCell>
        <mxCell id="7JEp76JD-acQuN-Ihj7b-69" value="" style="rounded=0;whiteSpace=wrap;html=1;" vertex="1" parent="1">
          <mxGeometry x="20" y="390" width="790" height="570" as="geometry" />
        </mxCell>
        <mxCell id="7JEp76JD-acQuN-Ihj7b-70" value="" style="shape=table;startSize=0;container=1;collapsible=0;childLayout=tableLayout;" vertex="1" parent="1">
          <mxGeometry x="30" y="330" width="770" height="40" as="geometry" />
        </mxCell>
        <mxCell id="7JEp76JD-acQuN-Ihj7b-71" value="" style="shape=partialRectangle;collapsible=0;dropTarget=0;pointerEvents=0;fillColor=none;top=0;left=0;bottom=0;right=0;points=[[0,0.5],[1,0.5]];portConstraint=eastwest;" vertex="1" parent="7JEp76JD-acQuN-Ihj7b-70">
          <mxGeometry width="770" height="40" as="geometry" />
        </mxCell>
        <mxCell id="7JEp76JD-acQuN-Ihj7b-72" value="" style="shape=partialRectangle;html=1;whiteSpace=wrap;connectable=0;overflow=hidden;fillColor=none;top=0;left=0;bottom=0;right=0;pointerEvents=1;" vertex="1" parent="7JEp76JD-acQuN-Ihj7b-71">
          <mxGeometry width="193" height="40" as="geometry">
            <mxRectangle width="193" height="40" as="alternateBounds" />
          </mxGeometry>
        </mxCell>
        <mxCell id="7JEp76JD-acQuN-Ihj7b-73" value="" style="shape=partialRectangle;html=1;whiteSpace=wrap;connectable=0;overflow=hidden;fillColor=none;top=0;left=0;bottom=0;right=0;pointerEvents=1;" vertex="1" parent="7JEp76JD-acQuN-Ihj7b-71">
          <mxGeometry x="193" width="192" height="40" as="geometry">
            <mxRectangle width="192" height="40" as="alternateBounds" />
          </mxGeometry>
        </mxCell>
        <mxCell id="7JEp76JD-acQuN-Ihj7b-74" value="" style="shape=partialRectangle;html=1;whiteSpace=wrap;connectable=0;overflow=hidden;fillColor=none;top=0;left=0;bottom=0;right=0;pointerEvents=1;" vertex="1" parent="7JEp76JD-acQuN-Ihj7b-71">
          <mxGeometry x="385" width="193" height="40" as="geometry">
            <mxRectangle width="193" height="40" as="alternateBounds" />
          </mxGeometry>
        </mxCell>
        <mxCell id="7JEp76JD-acQuN-Ihj7b-75" value="" style="shape=partialRectangle;html=1;whiteSpace=wrap;connectable=0;overflow=hidden;fillColor=none;top=0;left=0;bottom=0;right=0;pointerEvents=1;" vertex="1" parent="7JEp76JD-acQuN-Ihj7b-71">
          <mxGeometry x="578" width="192" height="40" as="geometry">
            <mxRectangle width="192" height="40" as="alternateBounds" />
          </mxGeometry>
        </mxCell>
        <mxCell id="7JEp76JD-acQuN-Ihj7b-76" value="titre produit" style="text;strokeColor=none;fillColor=none;html=1;fontSize=24;fontStyle=1;verticalAlign=middle;align=center;" vertex="1" parent="1">
          <mxGeometry x="363" y="420" width="100" height="40" as="geometry" />
        </mxCell>
        <mxCell id="7JEp76JD-acQuN-Ihj7b-77" value="description pruduit" style="text;html=1;strokeColor=none;fillColor=none;align=center;verticalAlign=middle;whiteSpace=wrap;rounded=0;" vertex="1" parent="1">
          <mxGeometry x="393" y="490" width="40" height="20" as="geometry" />
        </mxCell>
        <mxCell id="7JEp76JD-acQuN-Ihj7b-78" value="" style="shape=image;html=1;verticalAlign=top;verticalLabelPosition=bottom;labelBackgroundColor=#ffffff;imageAspect=0;aspect=fixed;image=https://cdn2.iconfinder.com/data/icons/random-set-1/389/Asset_78-128.png" vertex="1" parent="1">
          <mxGeometry x="413" y="550" width="330" height="330" as="geometry" />
        </mxCell>
        <mxCell id="7JEp76JD-acQuN-Ihj7b-79" value="prix&lt;br&gt;" style="text;strokeColor=none;fillColor=none;html=1;fontSize=24;fontStyle=1;verticalAlign=middle;align=center;" vertex="1" parent="1">
          <mxGeometry x="130" y="655" width="100" height="40" as="geometry" />
        </mxCell>
        <mxCell id="7JEp76JD-acQuN-Ihj7b-80" value="" style="rounded=0;whiteSpace=wrap;html=1;" vertex="1" parent="1">
          <mxGeometry x="20" y="970" width="790" height="180" as="geometry" />
        </mxCell>
        <mxCell id="7JEp76JD-acQuN-Ihj7b-81" value="Mention lÃ©gales" style="text;html=1;strokeColor=none;fillColor=none;align=center;verticalAlign=middle;whiteSpace=wrap;rounded=0;" vertex="1" parent="1">
          <mxGeometry x="40" y="985" width="110" height="150" as="geometry" />
        </mxCell>
        <mxCell id="7JEp76JD-acQuN-Ihj7b-82" value="" style="html=1;strokeWidth=1;shadow=0;dashed=0;shape=mxgraph.ios7.misc.link;fillColor=#4CDA64;strokeColor=none;buttonText=;strokeColor2=#222222;fontColor=#222222;fontSize=8;verticalLabelPosition=bottom;verticalAlign=top;align=center;sketch=0;" vertex="1" parent="1">
          <mxGeometry x="630" y="1010" width="40" height="40" as="geometry" />
        </mxCell>
        <mxCell id="7JEp76JD-acQuN-Ihj7b-83" value="" style="html=1;strokeWidth=1;shadow=0;dashed=0;shape=mxgraph.ios7.misc.link;fillColor=#4CDA64;strokeColor=none;buttonText=;strokeColor2=#222222;fontColor=#222222;fontSize=8;verticalLabelPosition=bottom;verticalAlign=top;align=center;sketch=0;" vertex="1" parent="1">
          <mxGeometry x="720" y="1010" width="40" height="40" as="geometry" />
        </mxCell>
        <mxCell id="7JEp76JD-acQuN-Ihj7b-84" value="" style="html=1;strokeWidth=1;shadow=0;dashed=0;shape=mxgraph.ios7.misc.link;fillColor=#4CDA64;strokeColor=none;buttonText=;strokeColor2=#222222;fontColor=#222222;fontSize=8;verticalLabelPosition=bottom;verticalAlign=top;align=center;sketch=0;" vertex="1" parent="1">
          <mxGeometry x="630" y="1080" width="40" height="40" as="geometry" />
        </mxCell>
        <mxCell id="7JEp76JD-acQuN-Ihj7b-85" value="" style="html=1;strokeWidth=1;shadow=0;dashed=0;shape=mxgraph.ios7.misc.link;fillColor=#4CDA64;strokeColor=none;buttonText=;strokeColor2=#222222;fontColor=#222222;fontSize=8;verticalLabelPosition=bottom;verticalAlign=top;align=center;sketch=0;" vertex="1" parent="1">
          <mxGeometry x="720" y="1080" width="40" height="40" as="geometry" />
        </mxCell>
      </root>
    </mxGraphModel>
  </diagram>
</mxfile>
